<svg width="25" height="25" viewBox="0 0 25 25" fill="none" xmlns="http://www.w3.org/2000/svg">
<g clip-path="url(#clip0_282_1345)">
<path d="M21.503 17.2755C21.1703 18.0442 20.7765 18.7517 20.3202 19.4021C19.6982 20.2889 19.189 20.9027 18.7965 21.2436C18.1881 21.8031 17.5363 22.0896 16.8383 22.1059C16.3372 22.1059 15.7329 21.9633 15.0295 21.674C14.3237 21.3862 13.6752 21.2436 13.0821 21.2436C12.4602 21.2436 11.7931 21.3862 11.0797 21.674C10.3651 21.9633 9.78944 22.114 9.34932 22.129C8.67997 22.1575 8.01279 21.8628 7.34684 21.2436C6.92179 20.8728 6.39014 20.2373 5.75325 19.337C5.06991 18.3755 4.50812 17.2606 4.068 15.9895C3.59664 14.6166 3.36035 13.2871 3.36035 12C3.36035 10.5257 3.67893 9.25407 4.31705 8.18846C4.81855 7.33252 5.48573 6.65733 6.32075 6.16167C7.15577 5.666 8.05802 5.41342 9.02965 5.39726C9.5613 5.39726 10.2585 5.56171 11.1249 5.88491C11.9888 6.2092 12.5436 6.37365 12.7868 6.37365C12.9686 6.37365 13.5849 6.18136 14.6296 5.798C15.6175 5.44248 16.4513 5.29527 17.1344 5.35326C18.9853 5.50264 20.3759 6.23228 21.3006 7.54681C19.6453 8.54982 18.8264 9.95465 18.8427 11.7568C18.8576 13.1606 19.3669 14.3287 20.3677 15.2562C20.8213 15.6867 21.3278 16.0194 21.8914 16.2557C21.7691 16.6101 21.6401 16.9496 21.503 17.2755ZM17.2579 0.570985C17.2579 1.67124 16.856 2.69854 16.0548 3.6494C15.0879 4.77978 13.9184 5.43297 12.6502 5.3299C12.634 5.19791 12.6246 5.05898 12.6246 4.913C12.6246 3.85676 13.0844 2.72638 13.901 1.80213C14.3087 1.33417 14.8271 0.945068 15.4559 0.634673C16.0833 0.32891 16.6767 0.159816 17.2348 0.130859C17.2511 0.277946 17.2579 0.425041 17.2579 0.57097V0.570985Z" fill="black"/>
</g>
<defs>
<clipPath id="clip0_282_1345">
<rect width="24" height="24" fill="white" transform="translate(0.660156 0.130859)"/>
</clipPath>
</defs>
</svg>
