<svg width="24" height="25" viewBox="0 0 24 25" fill="none" xmlns="http://www.w3.org/2000/svg">
<g clip-path="url(#clip0_282_1340)">
<path d="M23.9932 12.1309C23.9932 5.50344 18.6206 0.130859 11.9932 0.130859C5.36574 0.130859 -0.00683594 5.50344 -0.00683594 12.1309C-0.00683594 18.1203 4.38137 23.0848 10.1182 23.9851V15.5996H7.07129V12.1309H10.1182V9.48711C10.1182 6.47961 11.9097 4.81836 14.6507 4.81836C15.9632 4.81836 17.3369 5.05273 17.3369 5.05273V8.00586H15.8238C14.3332 8.00586 13.8682 8.93094 13.8682 9.88086V12.1309H17.1963L16.6643 15.5996H13.8682V23.9851C19.605 23.0848 23.9932 18.1203 23.9932 12.1309Z" fill="#1877F2"/>
<path d="M16.6643 15.5996L17.1963 12.1309H13.8682V9.88086C13.8682 8.93188 14.3332 8.00586 15.8238 8.00586H17.3369V5.05273C17.3369 5.05273 15.9637 4.81836 14.6507 4.81836C11.9097 4.81836 10.1182 6.47961 10.1182 9.48711V12.1309H7.07129V15.5996H10.1182V23.9851C11.3606 24.1795 12.6257 24.1795 13.8682 23.9851V15.5996H16.6643Z" fill="white"/>
</g>
<defs>
<clipPath id="clip0_282_1340">
<rect width="24" height="24" fill="white" transform="translate(-0.00683594 0.130859)"/>
</clipPath>
</defs>
</svg>
