<svg width="25" height="25" viewBox="0 0 25 25" fill="none" xmlns="http://www.w3.org/2000/svg">
<g clip-path="url(#clip0_282_1333)">
<path d="M24.0929 12.4071C24.0929 11.5914 24.0268 10.7712 23.8857 9.96875H12.5669V14.5897H19.0486C18.7797 16.0801 17.9154 17.3985 16.6499 18.2362V21.2346H20.5169C22.7877 19.1446 24.0929 16.058 24.0929 12.4071Z" fill="#4285F4"/>
<path d="M12.5668 24.1322C15.8032 24.1322 18.5326 23.0695 20.5212 21.2352L16.6542 18.2369C15.5783 18.9688 14.1894 19.3833 12.5712 19.3833C9.44055 19.3833 6.78612 17.2713 5.83371 14.4316H1.84326V17.5226C3.88037 21.5748 8.02956 24.1322 12.5668 24.1322Z" fill="#34A853"/>
<path d="M5.82943 14.4316C5.32677 12.9412 5.32677 11.3274 5.82943 9.83704V6.74609H1.8434C0.141394 10.1369 0.141394 14.1317 1.8434 17.5225L5.82943 14.4316Z" fill="#FBBC04"/>
<path d="M12.5668 4.88052C14.2776 4.85406 15.9311 5.49783 17.1701 6.67953L20.5962 3.25348C18.4268 1.21636 15.5475 0.0963934 12.5668 0.131668C8.02956 0.131668 3.88037 2.68908 1.84326 6.74567L5.8293 9.83661C6.77731 6.99259 9.43613 4.88052 12.5668 4.88052Z" fill="#EA4335"/>
</g>
<defs>
<clipPath id="clip0_282_1333">
<rect width="24" height="24" fill="white" transform="translate(0.32666 0.130859)"/>
</clipPath>
</defs>
</svg>
