<svg width="96" height="96" viewBox="0 0 96 96" fill="none" xmlns="http://www.w3.org/2000/svg">
<path d="M91.6944 48.1453C93.1615 46.4368 94.1897 44.3961 94.6896 42.2003C95.1895 40.0045 95.1461 37.7198 94.5632 35.5446C93.9803 33.3693 92.8755 31.3691 91.3446 29.7175C89.8136 28.0659 87.9028 26.8128 85.778 26.0669C86.1943 23.8536 86.0643 21.5721 85.3993 19.4205C84.7343 17.2688 83.5543 15.3119 81.9617 13.7195C80.3691 12.1272 78.4121 10.9474 76.2603 10.2827C74.1086 9.61791 71.8271 9.48822 69.6139 9.90484C68.8685 7.77948 67.6156 5.86817 65.964 4.33687C64.3124 2.80557 62.312 1.70055 60.1364 1.11776C57.9608 0.534974 55.6759 0.492028 53.4799 0.992654C51.284 1.49328 49.2435 2.52234 47.5355 3.9905C45.8269 2.52335 43.7863 1.49522 41.5905 0.995283C39.3946 0.495349 37.11 0.538718 34.9347 1.12163C32.7595 1.70454 30.7593 2.80938 29.1077 4.34031C27.4561 5.87124 26.203 7.78203 25.457 9.9069C23.2439 9.49094 20.9627 9.62122 18.8113 10.2864C16.6599 10.9516 14.7033 12.1317 13.1112 13.7242C11.5191 15.3167 10.3395 17.2736 9.67489 19.4252C9.01023 21.5767 8.88055 23.858 9.29707 26.071C7.17219 26.8169 5.2614 28.0701 3.73047 29.7217C2.19954 31.3732 1.09469 33.3734 0.51178 35.5487C-0.0711283 37.724 -0.114504 40.0086 0.38543 42.2044C0.885364 44.4002 1.91352 46.4409 3.38067 48.1494C1.91307 49.8579 0.884601 51.8987 0.384525 54.0947C-0.115551 56.2908 -0.0721374 58.5757 0.511026 60.7511C1.09419 62.9266 2.19946 64.9268 3.73092 66.5783C5.26238 68.2298 7.17376 69.4825 9.29913 70.2278C8.88225 72.4409 9.01179 74.7223 9.67652 76.874C10.3413 79.0256 11.5211 80.9826 13.1136 82.5749C14.7061 84.1672 16.6632 85.3468 18.815 86.0112C20.9667 86.6757 23.2481 86.8049 25.4612 86.3878C26.2071 88.5127 27.4602 90.4234 29.1118 91.9544C30.7634 93.4853 32.7636 94.5901 34.9389 95.1731C37.1141 95.756 39.3987 95.7993 41.5946 95.2994C43.7904 94.7995 45.8311 93.7713 47.5396 92.3042C49.248 93.7718 51.2889 94.8002 53.4849 95.3003C55.6809 95.8004 57.9658 95.757 60.1413 95.1738C62.3167 94.5907 64.317 93.4854 65.9685 91.9539C67.6199 90.4225 68.8727 88.5111 69.618 86.3857C71.8312 86.8025 74.1126 86.6729 76.2643 86.0081C78.416 85.3434 80.373 84.1636 81.9654 82.5711C83.5579 80.9787 84.7377 79.0217 85.4024 76.87C86.0672 74.7183 86.1968 72.4369 85.78 70.2237C87.9051 69.4779 89.816 68.2248 91.347 66.5732C92.878 64.9215 93.9828 62.9212 94.5656 60.7458C95.1483 58.5704 95.1914 56.2856 94.691 54.0898C94.1907 51.894 93.162 49.8535 91.6944 48.1453Z" fill="#18C07A"/>
</svg>
